<?xml version="1.0" encoding="UTF-8"?>
<!DOCTYPE svg PUBLIC "-//W3C//DTD SVG 1.1//EN" "http://www.w3.org/Graphics/SVG/1.1/DTD/svg11.dtd">
<svg width="184mm" height="104mm" viewBox="0 0 18400 10400" version="1.1" xmlns="http://www.w3.org/2000/svg" stroke-width="28.222" stroke-linejoin="round" xml:space="preserve">
 <path fill="rgb(255,255,255)" stroke="none" d="M 9201,10351 L 0,10351 0,0 18402,0 18402,10351 9201,10351 Z"/>
 <path fill="none" stroke="rgb(179,179,179)" stroke-linejoin="round" d="M 9005,9497 L 2106,9497 2106,406 15903,406 15903,9497 9005,9497 Z"/>
 <path fill="none" stroke="rgb(179,179,179)" stroke-linejoin="round" d="M 15903,9496 L 2106,9496"/>
 <path fill="none" stroke="rgb(179,179,179)" stroke-linejoin="round" d="M 15903,8485 L 2106,8485"/>
 <path fill="none" stroke="rgb(179,179,179)" stroke-linejoin="round" d="M 15903,7475 L 2106,7475"/>
 <path fill="none" stroke="rgb(179,179,179)" stroke-linejoin="round" d="M 15903,6465 L 2106,6465"/>
 <path fill="none" stroke="rgb(179,179,179)" stroke-linejoin="round" d="M 15903,5455 L 2106,5455"/>
 <path fill="none" stroke="rgb(179,179,179)" stroke-linejoin="round" d="M 15903,4445 L 2106,4445"/>
 <path fill="none" stroke="rgb(179,179,179)" stroke-linejoin="round" d="M 15903,3435 L 2106,3435"/>
 <path fill="none" stroke="rgb(179,179,179)" stroke-linejoin="round" d="M 15903,2425 L 2106,2425"/>
 <path fill="none" stroke="rgb(179,179,179)" stroke-linejoin="round" d="M 15903,1415 L 2106,1415"/>
 <path fill="none" stroke="rgb(179,179,179)" stroke-linejoin="round" d="M 15903,405 L 2106,405"/>
 <path fill="none" stroke="rgb(179,179,179)" stroke-linejoin="round" d="M 2106,9646 L 2106,9496"/>
 <path fill="none" stroke="rgb(179,179,179)" stroke-linejoin="round" d="M 2106,9646 L 2106,9496"/>
 <path fill="none" stroke="rgb(179,179,179)" stroke-linejoin="round" d="M 4077,9646 L 4077,9496"/>
 <path fill="none" stroke="rgb(179,179,179)" stroke-linejoin="round" d="M 4077,9646 L 4077,9496"/>
 <path fill="none" stroke="rgb(179,179,179)" stroke-linejoin="round" d="M 6048,9646 L 6048,9496"/>
 <path fill="none" stroke="rgb(179,179,179)" stroke-linejoin="round" d="M 6048,9646 L 6048,9496"/>
 <path fill="none" stroke="rgb(179,179,179)" stroke-linejoin="round" d="M 8019,9646 L 8019,9496"/>
 <path fill="none" stroke="rgb(179,179,179)" stroke-linejoin="round" d="M 8019,9646 L 8019,9496"/>
 <path fill="none" stroke="rgb(179,179,179)" stroke-linejoin="round" d="M 9989,9646 L 9989,9496"/>
 <path fill="none" stroke="rgb(179,179,179)" stroke-linejoin="round" d="M 9989,9646 L 9989,9496"/>
 <path fill="none" stroke="rgb(179,179,179)" stroke-linejoin="round" d="M 11960,9646 L 11960,9496"/>
 <path fill="none" stroke="rgb(179,179,179)" stroke-linejoin="round" d="M 11960,9646 L 11960,9496"/>
 <path fill="none" stroke="rgb(179,179,179)" stroke-linejoin="round" d="M 13931,9646 L 13931,9496"/>
 <path fill="none" stroke="rgb(179,179,179)" stroke-linejoin="round" d="M 13931,9646 L 13931,9496"/>
 <path fill="none" stroke="rgb(179,179,179)" stroke-linejoin="round" d="M 15903,9646 L 15903,9496"/>
 <path fill="none" stroke="rgb(179,179,179)" stroke-linejoin="round" d="M 15903,9646 L 15903,9496"/>
 <path fill="none" stroke="rgb(179,179,179)" stroke-linejoin="round" d="M 2106,9496 L 15903,9496"/>
 <path fill="none" stroke="rgb(179,179,179)" stroke-linejoin="round" d="M 1956,9496 L 2106,9496"/>
 <path fill="none" stroke="rgb(179,179,179)" stroke-linejoin="round" d="M 1956,9496 L 2106,9496"/>
 <path fill="none" stroke="rgb(179,179,179)" stroke-linejoin="round" d="M 1956,8485 L 2106,8485"/>
 <path fill="none" stroke="rgb(179,179,179)" stroke-linejoin="round" d="M 1956,8485 L 2106,8485"/>
 <path fill="none" stroke="rgb(179,179,179)" stroke-linejoin="round" d="M 1956,7475 L 2106,7475"/>
 <path fill="none" stroke="rgb(179,179,179)" stroke-linejoin="round" d="M 1956,7475 L 2106,7475"/>
 <path fill="none" stroke="rgb(179,179,179)" stroke-linejoin="round" d="M 1956,6465 L 2106,6465"/>
 <path fill="none" stroke="rgb(179,179,179)" stroke-linejoin="round" d="M 1956,6465 L 2106,6465"/>
 <path fill="none" stroke="rgb(179,179,179)" stroke-linejoin="round" d="M 1956,5455 L 2106,5455"/>
 <path fill="none" stroke="rgb(179,179,179)" stroke-linejoin="round" d="M 1956,5455 L 2106,5455"/>
 <path fill="none" stroke="rgb(179,179,179)" stroke-linejoin="round" d="M 1956,4445 L 2106,4445"/>
 <path fill="none" stroke="rgb(179,179,179)" stroke-linejoin="round" d="M 1956,4445 L 2106,4445"/>
 <path fill="none" stroke="rgb(179,179,179)" stroke-linejoin="round" d="M 1956,3435 L 2106,3435"/>
 <path fill="none" stroke="rgb(179,179,179)" stroke-linejoin="round" d="M 1956,3435 L 2106,3435"/>
 <path fill="none" stroke="rgb(179,179,179)" stroke-linejoin="round" d="M 1956,2425 L 2106,2425"/>
 <path fill="none" stroke="rgb(179,179,179)" stroke-linejoin="round" d="M 1956,2425 L 2106,2425"/>
 <path fill="none" stroke="rgb(179,179,179)" stroke-linejoin="round" d="M 1956,1415 L 2106,1415"/>
 <path fill="none" stroke="rgb(179,179,179)" stroke-linejoin="round" d="M 1956,1415 L 2106,1415"/>
 <path fill="none" stroke="rgb(179,179,179)" stroke-linejoin="round" d="M 1956,405 L 2106,405"/>
 <path fill="none" stroke="rgb(179,179,179)" stroke-linejoin="round" d="M 1956,405 L 2106,405"/>
 <path fill="none" stroke="rgb(179,179,179)" stroke-linejoin="round" d="M 2106,9496 L 2106,405"/>
 <path fill="rgb(0,69,134)" stroke="none" d="M 14424,9496 L 15410,9496 15410,8259 14424,8259 14424,9496 Z"/>
 <path fill="rgb(0,69,134)" stroke="none" d="M 12453,9496 L 13439,9496 13439,8264 12453,8264 12453,9496 Z"/>
 <path fill="rgb(0,69,134)" stroke="none" d="M 10482,9496 L 11467,9496 11467,8249 10482,8249 10482,9496 Z"/>
 <path fill="rgb(0,69,134)" stroke="none" d="M 6541,9496 L 7526,9496 7526,6783 6541,6783 6541,9496 Z"/>
 <path fill="rgb(0,69,134)" stroke="none" d="M 4569,9496 L 5555,9496 5555,6669 4569,6669 4569,9496 Z"/>
 <path fill="rgb(0,69,134)" stroke="none" d="M 2598,9496 L 3584,9496 3584,8174 2598,8174 2598,9496 Z"/>
 <path fill="rgb(255,66,14)" stroke="none" d="M 14424,8259 L 15410,8259 15410,4790 14424,4790 14424,8259 Z"/>
 <path fill="rgb(255,66,14)" stroke="none" d="M 12453,8264 L 13439,8264 13439,5002 12453,5002 12453,8264 Z"/>
 <path fill="rgb(255,66,14)" stroke="none" d="M 10482,8249 L 11467,8249 11467,1916 10482,1916 10482,8249 Z"/>
 <path fill="rgb(255,66,14)" stroke="none" d="M 8512,9496 L 9496,9496 9496,2377 8512,2377 8512,9496 Z"/>
 <path fill="rgb(255,66,14)" stroke="none" d="M 6541,6783 L 7526,6783 7526,3587 6541,3587 6541,6783 Z"/>
 <path fill="rgb(255,66,14)" stroke="none" d="M 4569,6669 L 5555,6669 5555,1704 4569,1704 4569,6669 Z"/>
 <path fill="rgb(255,66,14)" stroke="none" d="M 2598,8174 L 3584,8174 3584,4638 2598,4638 2598,8174 Z"/>
 <text class="TextShape"><tspan class="TextParagraph" font-family="Liberation Sans, sans-serif" font-size="353px" font-weight="400"><tspan class="TextPosition" x="2614" y="10064"><tspan fill="rgb(0,0,0)" stroke="none">sorted</tspan></tspan></tspan></text>
 <text class="TextShape"><tspan class="TextParagraph" font-family="Liberation Sans, sans-serif" font-size="353px" font-weight="400"><tspan class="TextPosition" x="4427" y="10064"><tspan fill="rgb(0,0,0)" stroke="none">scalable</tspan></tspan></tspan></text>
 <text class="TextShape"><tspan class="TextParagraph" font-family="Liberation Sans, sans-serif" font-size="353px" font-weight="400"><tspan class="TextPosition" x="6014" y="10064"><tspan fill="rgb(0,0,0)" stroke="none">scalable_fast</tspan></tspan></tspan></text>
 <text class="TextShape"><tspan class="TextParagraph" font-family="Liberation Sans, sans-serif" font-size="353px" font-weight="400"><tspan class="TextPosition" x="8687" y="10064"><tspan fill="rgb(0,0,0)" stroke="none">intel</tspan></tspan></tspan></text>
 <text class="TextShape"><tspan class="TextParagraph" font-family="Liberation Sans, sans-serif" font-size="353px" font-weight="400"><tspan class="TextPosition" x="10460" y="10064"><tspan fill="rgb(0,0,0)" stroke="none">btheap</tspan></tspan></tspan></text>
 <text class="TextShape"><tspan class="TextParagraph" font-family="Liberation Sans, sans-serif" font-size="353px" font-weight="400"><tspan class="TextPosition" x="12206" y="10064"><tspan fill="rgb(0,0,0)" stroke="none">rowmerge</tspan></tspan></tspan></text>
 <text class="TextShape"><tspan class="TextParagraph" font-family="Liberation Sans, sans-serif" font-size="353px" font-weight="400"><tspan class="TextPosition" x="14084" y="10064"><tspan fill="rgb(0,0,0)" stroke="none">rowmerge2</tspan></tspan></tspan></text>
 <text class="TextShape"><tspan class="TextParagraph" font-family="Liberation Sans, sans-serif" font-size="353px" font-weight="400"><tspan class="TextPosition" x="1671" y="9617"><tspan fill="rgb(0,0,0)" stroke="none">0</tspan></tspan></tspan></text>
 <text class="TextShape"><tspan class="TextParagraph" font-family="Liberation Sans, sans-serif" font-size="353px" font-weight="400"><tspan class="TextPosition" x="1380" y="8606"><tspan fill="rgb(0,0,0)" stroke="none">0.5</tspan></tspan></tspan></text>
 <text class="TextShape"><tspan class="TextParagraph" font-family="Liberation Sans, sans-serif" font-size="353px" font-weight="400"><tspan class="TextPosition" x="1671" y="7596"><tspan fill="rgb(0,0,0)" stroke="none">1</tspan></tspan></tspan></text>
 <text class="TextShape"><tspan class="TextParagraph" font-family="Liberation Sans, sans-serif" font-size="353px" font-weight="400"><tspan class="TextPosition" x="1380" y="6586"><tspan fill="rgb(0,0,0)" stroke="none">1.5</tspan></tspan></tspan></text>
 <text class="TextShape"><tspan class="TextParagraph" font-family="Liberation Sans, sans-serif" font-size="353px" font-weight="400"><tspan class="TextPosition" x="1671" y="5576"><tspan fill="rgb(0,0,0)" stroke="none">2</tspan></tspan></tspan></text>
 <text class="TextShape"><tspan class="TextParagraph" font-family="Liberation Sans, sans-serif" font-size="353px" font-weight="400"><tspan class="TextPosition" x="1380" y="4565"><tspan fill="rgb(0,0,0)" stroke="none">2.5</tspan></tspan></tspan></text>
 <text class="TextShape"><tspan class="TextParagraph" font-family="Liberation Sans, sans-serif" font-size="353px" font-weight="400"><tspan class="TextPosition" x="1671" y="3555"><tspan fill="rgb(0,0,0)" stroke="none">3</tspan></tspan></tspan></text>
 <text class="TextShape"><tspan class="TextParagraph" font-family="Liberation Sans, sans-serif" font-size="353px" font-weight="400"><tspan class="TextPosition" x="1380" y="2545"><tspan fill="rgb(0,0,0)" stroke="none">3.5</tspan></tspan></tspan></text>
 <text class="TextShape"><tspan class="TextParagraph" font-family="Liberation Sans, sans-serif" font-size="353px" font-weight="400"><tspan class="TextPosition" x="1671" y="1535"><tspan fill="rgb(0,0,0)" stroke="none">4</tspan></tspan></tspan></text>
 <text class="TextShape"><tspan class="TextParagraph" font-family="Liberation Sans, sans-serif" font-size="353px" font-weight="400"><tspan class="TextPosition" x="1380" y="525"><tspan fill="rgb(0,0,0)" stroke="none">4.5</tspan></tspan></tspan></text>
 <path fill="rgb(0,69,134)" stroke="none" d="M 16493,5529 L 16387,5529 16387,5318 16598,5318 16598,5529 16493,5529 Z"/>
 <path fill="rgb(255,66,14)" stroke="none" d="M 16493,5032 L 16387,5032 16387,4821 16598,4821 16598,5032 16493,5032 Z"/>
 <text class="TextShape"><tspan class="TextParagraph" font-family="Liberation Sans, sans-serif" font-size="353px" font-weight="400"><tspan class="TextPosition" x="16698" y="5046"><tspan fill="rgb(0,0,0)" stroke="none">symbolic</tspan></tspan></tspan></text>
 <text class="TextShape"><tspan class="TextParagraph" font-family="Liberation Sans, sans-serif" font-size="353px" font-weight="400"><tspan class="TextPosition" x="16698" y="5543"><tspan fill="rgb(0,0,0)" stroke="none">numeric</tspan></tspan></tspan></text>
 <text class="TextShape" transform="translate(837,5890) rotate(-90) translate(-837,-5890)"><tspan class="TextParagraph" font-family="Liberation Sans, sans-serif" font-size="318px" font-weight="400"><tspan class="TextPosition" x="837" y="5890"><tspan fill="rgb(0,0,0)" stroke="none">Time / sec</tspan></tspan></tspan></text>
</svg>